<svg width="733" height="1254" xmlns="http://www.w3.org/2000/svg" xmlns:xlink="http://www.w3.org/1999/xlink" xml:space="preserve" overflow="hidden"><g transform="translate(-187 -278)"><rect x="325" y="415" width="164" height="174" fill="#8FAADC"/><path d="M325.5 406.5 325.5 590.063" stroke="#000000" stroke-width="4.58333" stroke-miterlimit="8" fill="none" fill-rule="evenodd"/><path d="M490.5 406.5 490.5 590.063" stroke="#000000" stroke-width="4.58333" stroke-miterlimit="8" fill="none" fill-rule="evenodd"/><path d="M0 0 60.9284 60.9287" stroke="#000000" stroke-width="4.58333" stroke-miterlimit="8" fill="none" fill-rule="evenodd" transform="matrix(-0.978148 0.207912 0.207912 0.978148 372.116 335.482)"/><path d="M443.579 335.482 490.508 407.747" stroke="#000000" stroke-width="4.58333" stroke-miterlimit="8" fill="none" fill-rule="evenodd"/><path d="M351.5 334 351.5 292C351.5 286.201 376.796 281.5 408 281.5 439.204 281.5 464.5 286.201 464.5 292L464.5 334C464.5 339.799 439.204 344.5 408 344.5 376.796 344.5 351.5 339.799 351.5 334Z" fill="#3B3838" fill-rule="evenodd"/><path d="M464.5 292C464.5 297.799 439.204 302.5 408 302.5 376.796 302.5 351.5 297.799 351.5 292" stroke="#000000" stroke-width="4.58333" stroke-miterlimit="8" fill="none" fill-rule="evenodd"/><path d="M351.5 334 351.5 292C351.5 286.201 376.796 281.5 408 281.5 439.204 281.5 464.5 286.201 464.5 292L464.5 334C464.5 339.799 439.204 344.5 408 344.5 376.796 344.5 351.5 339.799 351.5 334Z" stroke="#000000" stroke-width="4.58333" stroke-miterlimit="8" fill="none" fill-rule="evenodd"/><rect x="627" y="414" width="164" height="175" fill="#8FAADC"/><path d="M627.5 405.5 627.5 589.063" stroke="#000000" stroke-width="4.58333" stroke-miterlimit="8" fill="none" fill-rule="evenodd"/><path d="M792.5 405.5 792.5 589.063" stroke="#000000" stroke-width="4.58333" stroke-miterlimit="8" fill="none" fill-rule="evenodd"/><path d="M0 0 60.9284 60.9287" stroke="#000000" stroke-width="4.58333" stroke-miterlimit="8" fill="none" fill-rule="evenodd" transform="matrix(-0.978148 0.207912 0.207912 0.978148 673.357 334.98)"/><path d="M745.736 334.98 792.665 407.245" stroke="#000000" stroke-width="4.58333" stroke-miterlimit="8" fill="none" fill-rule="evenodd"/><path d="M653.5 333.833 653.5 291.167C653.5 285.276 679.02 280.5 710.5 280.5 741.98 280.5 767.5 285.276 767.5 291.167L767.5 333.833C767.5 339.724 741.98 344.5 710.5 344.5 679.02 344.5 653.5 339.724 653.5 333.833Z" fill="#3B3838" fill-rule="evenodd"/><path d="M767.5 291.167C767.5 297.058 741.98 301.833 710.5 301.833 679.02 301.833 653.5 297.058 653.5 291.167" stroke="#000000" stroke-width="4.58333" stroke-miterlimit="8" fill="none" fill-rule="evenodd"/><path d="M653.5 333.833 653.5 291.167C653.5 285.276 679.02 280.5 710.5 280.5 741.98 280.5 767.5 285.276 767.5 291.167L767.5 333.833C767.5 339.724 741.98 344.5 710.5 344.5 679.02 344.5 653.5 339.724 653.5 333.833Z" stroke="#000000" stroke-width="4.58333" stroke-miterlimit="8" fill="none" fill-rule="evenodd"/><rect x="189.5" y="506.5" width="728" height="79.0001" stroke="#000000" stroke-width="4.58333" stroke-miterlimit="8" fill="#E7E6E6"/><rect x="246.5" y="585.5" width="625" height="36.0001" stroke="#000000" stroke-width="4.58333" stroke-miterlimit="8" fill="#7C7C7C"/><rect x="189.5" y="621.5" width="728" height="132" stroke="#000000" stroke-width="4.58333" stroke-miterlimit="8" fill="#E7E6E6"/><rect x="189.5" y="648.5" width="728" height="77.9997" stroke="#000000" stroke-width="4.58333" stroke-miterlimit="8" fill="#3B3838"/><path d="M734.5 621.5 734.5 753.5" stroke="#000000" stroke-width="3.4375" stroke-miterlimit="8" fill="none" fill-rule="evenodd"/><rect x="241.5" y="753.5" width="624" height="36.0001" stroke="#000000" stroke-width="4.58333" stroke-miterlimit="8" fill="#7C7C7C"/><rect x="189.5" y="789.5" width="728" height="121" stroke="#000000" stroke-width="4.58333" stroke-miterlimit="8" fill="#E7E6E6"/><path d="M585.5 790.5 585.5 809C585.5 819.217 571.173 827.5 553.5 827.5 535.827 827.5 521.5 819.217 521.5 809L521.5 790.5Z" stroke="#000000" stroke-width="4.58333" stroke-miterlimit="8" fill="#3B3838" fill-rule="evenodd"/><path d="M0 0 647.625 0.000360892" stroke="#7C7C7C" stroke-width="3.4375" stroke-miterlimit="8" fill="none" fill-rule="evenodd" transform="matrix(-1 0 0 1 878.125 850.5)"/><rect x="241.5" y="910.5" width="624" height="36.9998" stroke="#000000" stroke-width="4.58333" stroke-miterlimit="8" fill="#7C7C7C"/><rect x="189.5" y="947.5" width="728" height="325" stroke="#000000" stroke-width="4.58333" stroke-miterlimit="8" fill="#E7E6E6"/><rect x="220.5" y="978.5" width="333" height="266" stroke="#000000" stroke-width="4.58333" stroke-miterlimit="8" fill="#3B3838"/><path d="M0 0 19.4999 0C30.2694-8.14809e-15 38.9998 14.327 38.9998 32.0001 38.9998 49.6733 30.2694 64.0003 19.4999 64.0003L0 64.0003Z" stroke="#E7E6E6" stroke-width="4.58333" stroke-miterlimit="8" fill="#7C7C7C" fill-rule="evenodd" transform="matrix(-1 0 0 1 553.5 1079.5)"/><rect x="553.5" y="978.5" width="333" height="266" stroke="#000000" stroke-width="4.58333" stroke-miterlimit="8" fill="#3B3838"/><path d="M0 0 332.75 0.000360892" stroke="#000000" stroke-width="3.4375" stroke-miterlimit="8" fill="none" fill-rule="evenodd" transform="matrix(-1 0 0 1 886.25 1062.5)"/><path d="M0 0 332.75 0.000360892" stroke="#000000" stroke-width="3.4375" stroke-miterlimit="8" fill="none" fill-rule="evenodd" transform="matrix(-1 0 0 1 886.25 1158.5)"/><path d="M700.5 1020.5C700.5 1010.01 709.007 1001.5 719.5 1001.5 729.993 1001.5 738.5 1010.01 738.5 1020.5 738.5 1030.99 729.993 1039.5 719.5 1039.5 709.007 1039.5 700.5 1030.99 700.5 1020.5Z" stroke="#E7E6E6" stroke-width="4.58333" stroke-miterlimit="8" fill="#7C7C7C" fill-rule="evenodd"/><path d="M700.5 1110.5C700.5 1100.01 709.007 1091.5 719.5 1091.5 729.993 1091.5 738.5 1100.01 738.5 1110.5 738.5 1120.99 729.993 1129.5 719.5 1129.5 709.007 1129.5 700.5 1120.99 700.5 1110.5Z" stroke="#E7E6E6" stroke-width="4.58333" stroke-miterlimit="8" fill="#7C7C7C" fill-rule="evenodd"/><path d="M700.5 1201.5C700.5 1191.01 709.007 1182.5 719.5 1182.5 729.993 1182.5 738.5 1191.01 738.5 1201.5 738.5 1211.99 729.993 1220.5 719.5 1220.5 709.007 1220.5 700.5 1211.99 700.5 1201.5Z" stroke="#E7E6E6" stroke-width="4.58333" stroke-miterlimit="8" fill="#7C7C7C" fill-rule="evenodd"/><rect x="241.5" y="1272.5" width="624" height="36.9998" stroke="#000000" stroke-width="4.58333" stroke-miterlimit="8" fill="#7C7C7C"/><rect x="189.5" y="1309.5" width="728" height="183" stroke="#000000" stroke-width="4.58333" stroke-miterlimit="8" fill="#E7E6E6"/><rect x="189.5" y="1346.5" width="728" height="109" stroke="#000000" stroke-width="4.58333" stroke-miterlimit="8" fill="#3B3838"/><path d="M734.5 1309.5 734.5 1493.06" stroke="#000000" stroke-width="3.4375" stroke-miterlimit="8" fill="none" fill-rule="evenodd"/><rect x="244.5" y="1492.5" width="624" height="36.9998" stroke="#000000" stroke-width="4.58333" stroke-miterlimit="8" fill="#7C7C7C"/></g></svg>