<svg width="123" height="921" xmlns="http://www.w3.org/2000/svg" xmlns:xlink="http://www.w3.org/1999/xlink" xml:space="preserve" overflow="hidden"><defs><clipPath id="clip0"><rect x="678" y="1471" width="123" height="921"/></clipPath></defs><g clip-path="url(#clip0)" transform="translate(-678 -1471)"><path d="M692.5 1877.5 692.501 2028.98" stroke="#7C7C7C" stroke-width="4.58333" stroke-miterlimit="8" fill="none" fill-rule="evenodd"/><path d="M733 2002 797 2002 784.2 2392 745.8 2392Z" fill="#E7E6E6" fill-rule="evenodd"/><rect x="733" y="1906" width="64.0003" height="99" fill="#7C7C7C"/><rect x="730" y="1500" width="17.9999" height="78" fill="#7C7C7C"/><path d="M0 83.2001 118 0 118 416 0 416Z" stroke="#000000" stroke-width="4.58333" stroke-miterlimit="8" fill="#3B3838" fill-rule="evenodd" transform="matrix(1 0 0 -1 680.5 1967.5)"/><rect x="697" y="1590" width="82.9998" height="95.0002" fill="#FFFFFF"/><rect x="730" y="1609" width="17.9999" height="78" fill="#7C7C7C"/><path d="M704.5 1598.33C704.5 1595.66 720.397 1593.5 740 1593.5 759.603 1593.5 775.5 1595.66 775.5 1598.33L775.5 1617.67C775.5 1620.34 759.603 1622.5 740 1622.5 720.397 1622.5 704.5 1620.34 704.5 1617.67L704.5 1598.33Z" fill="#3B3838" fill-rule="evenodd"/><path d="M775.5 1598.33C775.5 1601.01 759.603 1601.82 740 1601.82 720.397 1601.82 704.5 1601.01 704.5 1598.33" stroke="#000000" stroke-width="3.4375" stroke-miterlimit="8" fill="none" fill-rule="evenodd"/><path d="M704.5 1598.33C704.5 1595.66 720.397 1593.5 740 1593.5 759.603 1593.5 775.5 1595.66 775.5 1598.33L775.5 1617.67C775.5 1620.34 759.603 1622.5 740 1622.5 720.397 1622.5 704.5 1620.34 704.5 1617.67L704.5 1598.33Z" stroke="#000000" stroke-width="3.4375" stroke-miterlimit="8" fill="none" fill-rule="evenodd"/><rect x="698.5" y="1590.5" width="82.9998" height="94.9999" stroke="#000000" stroke-width="4.58333" stroke-miterlimit="8" fill="none"/><path d="M0 0 13.4999 0C20.9557-8.27536e-15 26.9998 14.5507 26.9998 32.5 26.9998 50.4492 20.9557 65 13.4999 65L0 65Z" stroke="#000000" stroke-width="4.58333" stroke-miterlimit="8" fill="#7C7C7C" fill-rule="evenodd" transform="matrix(-6.12323e-17 -1 -1 6.12323e-17 770.5 1500.5)"/><path d="M733.5 2057.5 742.81 2316.96" stroke="#7C7C7C" stroke-width="4.58333" stroke-miterlimit="8" fill="none" fill-rule="evenodd"/><path d="M0 27.9998 0.685413 0 46.3143 0 46.9997 27.9998Z" fill="#7C7C7C" fill-rule="evenodd" transform="matrix(1 0 0 -1 741 2317)"/><path d="M690.5 2028.5 733.843 2061.82" stroke="#7C7C7C" stroke-width="4.58333" stroke-miterlimit="8" fill="none" fill-rule="evenodd"/><path d="M0 0 64.9841 0.000360892" stroke="#7C7C7C" stroke-width="3.4375" stroke-miterlimit="8" fill="none" fill-rule="evenodd" transform="matrix(-1 0 0 1 795.484 1738.5)"/><path d="M0 0 64.9841 0.000360892" stroke="#7C7C7C" stroke-width="3.4375" stroke-miterlimit="8" fill="none" fill-rule="evenodd" transform="matrix(-1 0 0 1 795.484 1769.5)"/><path d="M0 0 64.9841 0.000360892" stroke="#7C7C7C" stroke-width="3.4375" stroke-miterlimit="8" fill="none" fill-rule="evenodd" transform="matrix(-1 0 0 1 795.484 1801.5)"/><path d="M0 0 64.9841 0.000360892" stroke="#7C7C7C" stroke-width="3.4375" stroke-miterlimit="8" fill="none" fill-rule="evenodd" transform="matrix(-1 0 0 1 795.484 1834.5)"/></g></svg>