<svg width="1604" height="1328" xmlns="http://www.w3.org/2000/svg" xmlns:xlink="http://www.w3.org/1999/xlink" xml:space="preserve" overflow="hidden"><g transform="translate(-1198 -204)"><path d="M1228.51 1390.5C1213.03 1390.5 1200.5 1328.93 1200.5 1253 1200.5 1177.07 1213.03 1115.5 1228.51 1115.5L1340.49 1115.5C1355.97 1115.5 1368.5 1177.07 1368.5 1253 1368.5 1328.93 1355.97 1390.5 1340.49 1390.5L1228.51 1390.5Z" fill="#E7E6E6" fill-rule="evenodd"/><path d="M1228.51 1115.5C1243.98 1115.5 1232.35 1113.85 1226.12 1250.94 1231.65 1390.77 1243.98 1390.5 1228.51 1390.5" stroke="#000000" stroke-width="4.58333" stroke-miterlimit="8" fill="none" fill-rule="evenodd"/><path d="M1228.51 1390.5C1213.03 1390.5 1200.5 1328.93 1200.5 1253 1200.5 1177.07 1213.03 1115.5 1228.51 1115.5L1340.49 1115.5C1355.97 1115.5 1368.5 1177.07 1368.5 1253 1368.5 1328.93 1355.97 1390.5 1340.49 1390.5L1228.51 1390.5Z" stroke="#000000" stroke-width="4.58333" stroke-miterlimit="8" fill="none" fill-rule="evenodd"/><path d="M1247.5 1160C1247.5 1147.02 1258.02 1136.5 1271 1136.5 1283.98 1136.5 1294.5 1147.02 1294.5 1160 1294.5 1172.98 1283.98 1183.5 1271 1183.5 1258.02 1183.5 1247.5 1172.98 1247.5 1160Z" stroke="#3B3838" stroke-width="4.58333" stroke-miterlimit="8" fill="#7C7C7C" fill-rule="evenodd"/><path d="M2279.5 224.289C2279.5 234.113 2354.04 242.077 2446 242.077 2537.96 242.077 2612.5 234.113 2612.5 224.289L2612.5 1070.71C2612.5 1080.54 2537.96 1088.5 2446 1088.5 2354.04 1088.5 2279.5 1080.54 2279.5 1070.71Z" fill="#E7E6E6" fill-rule="evenodd"/><path d="M2279.5 224.289C2279.5 214.464 2354.04 206.5 2446 206.5 2537.96 206.5 2612.5 214.464 2612.5 224.289 2612.5 234.113 2537.96 242.077 2446 242.077 2354.04 242.077 2279.5 234.113 2279.5 224.289Z" fill="#F1F0F0" fill-rule="evenodd"/><path d="M2612.5 224.289C2612.5 234.113 2537.96 242.077 2446 242.077 2354.04 242.077 2279.5 234.113 2279.5 224.289 2279.5 214.464 2354.04 206.5 2446 206.5 2537.96 206.5 2612.5 214.464 2612.5 224.289L2612.5 1070.71C2612.5 1080.54 2537.96 1088.5 2446 1088.5 2354.04 1088.5 2279.5 1080.54 2279.5 1070.71L2279.5 224.289" stroke="#000000" stroke-width="4.58333" stroke-miterlimit="8" fill="none" fill-rule="evenodd"/><rect x="1242.5" y="1245.5" width="99" height="43" stroke="#000000" stroke-width="4.58333" stroke-miterlimit="8" fill="#3B3838"/><path d="M0 0 29.9999 0 23.9999 159 5.99998 159Z" fill="#E7E6E6" fill-rule="evenodd" transform="matrix(-6.12323e-17 -1 -1 6.12323e-17 1412 1282)"/><rect x="1319.5" y="986.5" width="1480" height="543" stroke="#000000" stroke-width="4.58333" stroke-miterlimit="8" fill="#E7E6E6"/><rect x="0" y="0" width="277" height="17.0002" fill="#7C7C7C" transform="matrix(1 0 0 -1 2520 1037)"/><rect x="0" y="0" width="277" height="17.0002" fill="#7C7C7C" transform="matrix(1 0 0 -1 2520 1071)"/><rect x="0" y="0" width="277" height="17.0002" fill="#7C7C7C" transform="matrix(1 0 0 -1 2520 1105)"/><rect x="0" y="0" width="277" height="15.9998" fill="#7C7C7C" transform="matrix(1 0 0 -1 2520 1139)"/><rect x="0" y="0" width="277" height="15.9998" fill="#7C7C7C" transform="matrix(1 0 0 -1 2520 1173)"/><rect x="0" y="0" width="277" height="15.9998" fill="#7C7C7C" transform="matrix(1 0 0 -1 2520 1209)"/><rect x="0" y="0" width="277" height="16.0002" fill="#7C7C7C" transform="matrix(1 0 0 -1 2520 1245)"/><rect x="0" y="0" width="277" height="16.0002" fill="#7C7C7C" transform="matrix(1 0 0 -1 2520 1281)"/><rect x="0" y="0" width="277" height="15.9998" fill="#7C7C7C" transform="matrix(1 0 0 -1 2520 1317)"/><rect x="0" y="0" width="277" height="17.0002" fill="#7C7C7C" transform="matrix(1 0 0 -1 2520 1354)"/><rect x="0" y="0" width="277" height="17.0002" fill="#7C7C7C" transform="matrix(1 0 0 -1 2520 1390)"/><rect x="0" y="0" width="277" height="16.9998" fill="#7C7C7C" transform="matrix(1 0 0 -1 2520 1426)"/><rect x="0" y="0" width="277" height="16.9998" fill="#7C7C7C" transform="matrix(1 0 0 -1 2520 1462)"/><rect x="0" y="0" width="277" height="17.0002" fill="#7C7C7C" transform="matrix(1 0 0 -1 2520 1498)"/><path d="M2459.01 1009 2749 1009C2716.95 1009 2668.3 1115.86 2668.3 1255.29 2668.3 1394.72 2716.95 1514 2749 1514L2459.01 1514C2426.96 1514 2401 1400.93 2401 1261.5 2401 1122.07 2426.96 1009 2459.01 1009Z" fill="#E7E6E6" fill-rule="evenodd"/><path d="M0 0 722.366 0.000360892" stroke="#7C7C7C" stroke-width="4.58333" stroke-miterlimit="8" fill="none" fill-rule="evenodd" transform="matrix(-1 0 0 1 2658.87 1151.5)"/><rect x="1358.5" y="1025.5" width="580" height="464" stroke="#000000" stroke-width="4.58333" stroke-miterlimit="8" fill="#3B3838"/><path d="M2260.5 986.5 2280.21 940.5 2611.79 940.5 2631.5 986.5Z" stroke="#000000" stroke-width="4.58333" stroke-miterlimit="8" fill="#7C7C7C" fill-rule="evenodd"/><rect x="1268.5" y="1080.5" width="16.0001" height="34" stroke="#000000" stroke-width="4.58333" stroke-miterlimit="8" fill="#3B3838"/><rect x="1360" y="1127" width="192" height="45.9998" fill="#0070C0"/></g></svg>