<svg width="1067" height="792" xmlns="http://www.w3.org/2000/svg" xmlns:xlink="http://www.w3.org/1999/xlink" xml:space="preserve" overflow="hidden"><g transform="translate(-233 -515)"><path d="M235.5 548.036C235.5 531.171 249.171 517.5 266.036 517.5L1266.96 517.5C1283.83 517.5 1297.5 531.171 1297.5 548.036L1297.5 1273.96C1297.5 1290.83 1283.83 1304.5 1266.96 1304.5L266.036 1304.5C249.171 1304.5 235.5 1290.83 235.5 1273.96Z" stroke="#000000" stroke-width="4.58333" stroke-miterlimit="8" fill="#E7E6E6" fill-rule="evenodd"/><path d="M279.5 1196.36 279.5 628.642 349.642 558.5 1228.17 558.5 1260.5 590.828 1260.5 1234.17 1228.17 1266.5 349.642 1266.5Z" stroke="#000000" stroke-width="4.58333" stroke-miterlimit="8" fill="#D9D9D9" fill-rule="evenodd"/><path d="M355.5 639C355.5 623.812 368.036 611.5 383.5 611.5 398.964 611.5 411.5 623.812 411.5 639 411.5 654.188 398.964 666.5 383.5 666.5 368.036 666.5 355.5 654.188 355.5 639Z" stroke="#8497B0" stroke-width="4.58333" stroke-miterlimit="8" fill="#B4C7E7" fill-rule="evenodd"/><path d="M431.5 639C431.5 623.812 443.812 611.5 459 611.5 474.188 611.5 486.5 623.812 486.5 639 486.5 654.188 474.188 666.5 459 666.5 443.812 666.5 431.5 654.188 431.5 639Z" stroke="#8497B0" stroke-width="4.58333" stroke-miterlimit="8" fill="#B4C7E7" fill-rule="evenodd"/><path d="M504.5 639C504.5 623.812 517.036 611.5 532.5 611.5 547.964 611.5 560.5 623.812 560.5 639 560.5 654.188 547.964 666.5 532.5 666.5 517.036 666.5 504.5 654.188 504.5 639Z" stroke="#8497B0" stroke-width="4.58333" stroke-miterlimit="8" fill="#B4C7E7" fill-rule="evenodd"/><path d="M578.5 639C578.5 623.812 591.036 611.5 606.5 611.5 621.964 611.5 634.5 623.812 634.5 639 634.5 654.188 621.964 666.5 606.5 666.5 591.036 666.5 578.5 654.188 578.5 639Z" stroke="#8497B0" stroke-width="4.58333" stroke-miterlimit="8" fill="#B4C7E7" fill-rule="evenodd"/><path d="M654.5 639C654.5 623.812 666.812 611.5 682 611.5 697.188 611.5 709.5 623.812 709.5 639 709.5 654.188 697.188 666.5 682 666.5 666.812 666.5 654.5 654.188 654.5 639Z" stroke="#8497B0" stroke-width="4.58333" stroke-miterlimit="8" fill="#B4C7E7" fill-rule="evenodd"/><path d="M729.5 639C729.5 623.812 742.036 611.5 757.5 611.5 772.964 611.5 785.5 623.812 785.5 639 785.5 654.188 772.964 666.5 757.5 666.5 742.036 666.5 729.5 654.188 729.5 639Z" stroke="#8497B0" stroke-width="4.58333" stroke-miterlimit="8" fill="#B4C7E7" fill-rule="evenodd"/><path d="M803.5 639C803.5 623.812 815.812 611.5 831 611.5 846.188 611.5 858.5 623.812 858.5 639 858.5 654.188 846.188 666.5 831 666.5 815.812 666.5 803.5 654.188 803.5 639Z" stroke="#8497B0" stroke-width="4.58333" stroke-miterlimit="8" fill="#B4C7E7" fill-rule="evenodd"/><path d="M877.5 639C877.5 623.812 889.812 611.5 905 611.5 920.188 611.5 932.5 623.812 932.5 639 932.5 654.188 920.188 666.5 905 666.5 889.812 666.5 877.5 654.188 877.5 639Z" stroke="#8497B0" stroke-width="4.58333" stroke-miterlimit="8" fill="#B4C7E7" fill-rule="evenodd"/><path d="M951.5 639C951.5 623.812 964.036 611.5 979.5 611.5 994.964 611.5 1007.5 623.812 1007.5 639 1007.5 654.188 994.964 666.5 979.5 666.5 964.036 666.5 951.5 654.188 951.5 639Z" stroke="#8497B0" stroke-width="4.58333" stroke-miterlimit="8" fill="#B4C7E7" fill-rule="evenodd"/><path d="M1026.5 639C1026.5 623.812 1039.04 611.5 1054.5 611.5 1069.96 611.5 1082.5 623.812 1082.5 639 1082.5 654.188 1069.96 666.5 1054.5 666.5 1039.04 666.5 1026.5 654.188 1026.5 639Z" stroke="#8497B0" stroke-width="4.58333" stroke-miterlimit="8" fill="#B4C7E7" fill-rule="evenodd"/><path d="M1100.5 639C1100.5 623.812 1113.04 611.5 1128.5 611.5 1143.96 611.5 1156.5 623.812 1156.5 639 1156.5 654.188 1143.96 666.5 1128.5 666.5 1113.04 666.5 1100.5 654.188 1100.5 639Z" stroke="#8497B0" stroke-width="4.58333" stroke-miterlimit="8" fill="#B4C7E7" fill-rule="evenodd"/><path d="M1174.5 639C1174.5 623.812 1187.04 611.5 1202.5 611.5 1217.96 611.5 1230.5 623.812 1230.5 639 1230.5 654.188 1217.96 666.5 1202.5 666.5 1187.04 666.5 1174.5 654.188 1174.5 639Z" stroke="#8497B0" stroke-width="4.58333" stroke-miterlimit="8" fill="#B4C7E7" fill-rule="evenodd"/><path d="M355.5 712.5C355.5 697.036 368.036 684.5 383.5 684.5 398.964 684.5 411.5 697.036 411.5 712.5 411.5 727.964 398.964 740.5 383.5 740.5 368.036 740.5 355.5 727.964 355.5 712.5Z" stroke="#8497B0" stroke-width="4.58333" stroke-miterlimit="8" fill="#B4C7E7" fill-rule="evenodd"/><path d="M431.5 712.5C431.5 697.036 443.812 684.5 459 684.5 474.188 684.5 486.5 697.036 486.5 712.5 486.5 727.964 474.188 740.5 459 740.5 443.812 740.5 431.5 727.964 431.5 712.5Z" stroke="#8497B0" stroke-width="4.58333" stroke-miterlimit="8" fill="#B4C7E7" fill-rule="evenodd"/><path d="M504.5 712.5C504.5 697.036 517.036 684.5 532.5 684.5 547.964 684.5 560.5 697.036 560.5 712.5 560.5 727.964 547.964 740.5 532.5 740.5 517.036 740.5 504.5 727.964 504.5 712.5Z" stroke="#8497B0" stroke-width="4.58333" stroke-miterlimit="8" fill="#B4C7E7" fill-rule="evenodd"/><path d="M578.5 712.5C578.5 697.036 591.036 684.5 606.5 684.5 621.964 684.5 634.5 697.036 634.5 712.5 634.5 727.964 621.964 740.5 606.5 740.5 591.036 740.5 578.5 727.964 578.5 712.5Z" stroke="#8497B0" stroke-width="4.58333" stroke-miterlimit="8" fill="#B4C7E7" fill-rule="evenodd"/><path d="M654.5 712.5C654.5 697.036 666.812 684.5 682 684.5 697.188 684.5 709.5 697.036 709.5 712.5 709.5 727.964 697.188 740.5 682 740.5 666.812 740.5 654.5 727.964 654.5 712.5Z" stroke="#8497B0" stroke-width="4.58333" stroke-miterlimit="8" fill="#B4C7E7" fill-rule="evenodd"/><path d="M729.5 712.5C729.5 697.036 742.036 684.5 757.5 684.5 772.964 684.5 785.5 697.036 785.5 712.5 785.5 727.964 772.964 740.5 757.5 740.5 742.036 740.5 729.5 727.964 729.5 712.5Z" stroke="#8497B0" stroke-width="4.58333" stroke-miterlimit="8" fill="#B4C7E7" fill-rule="evenodd"/><path d="M803.5 712.5C803.5 697.036 815.812 684.5 831 684.5 846.188 684.5 858.5 697.036 858.5 712.5 858.5 727.964 846.188 740.5 831 740.5 815.812 740.5 803.5 727.964 803.5 712.5Z" stroke="#8497B0" stroke-width="4.58333" stroke-miterlimit="8" fill="#B4C7E7" fill-rule="evenodd"/><path d="M877.5 712.5C877.5 697.036 889.812 684.5 905 684.5 920.188 684.5 932.5 697.036 932.5 712.5 932.5 727.964 920.188 740.5 905 740.5 889.812 740.5 877.5 727.964 877.5 712.5Z" stroke="#8497B0" stroke-width="4.58333" stroke-miterlimit="8" fill="#B4C7E7" fill-rule="evenodd"/><path d="M951.5 712.5C951.5 697.036 964.036 684.5 979.5 684.5 994.964 684.5 1007.5 697.036 1007.5 712.5 1007.5 727.964 994.964 740.5 979.5 740.5 964.036 740.5 951.5 727.964 951.5 712.5Z" stroke="#8497B0" stroke-width="4.58333" stroke-miterlimit="8" fill="#B4C7E7" fill-rule="evenodd"/><path d="M1026.5 712.5C1026.5 697.036 1039.04 684.5 1054.5 684.5 1069.96 684.5 1082.5 697.036 1082.5 712.5 1082.5 727.964 1069.96 740.5 1054.5 740.5 1039.04 740.5 1026.5 727.964 1026.5 712.5Z" stroke="#8497B0" stroke-width="4.58333" stroke-miterlimit="8" fill="#B4C7E7" fill-rule="evenodd"/><path d="M1100.5 712.5C1100.5 697.036 1113.04 684.5 1128.5 684.5 1143.96 684.5 1156.5 697.036 1156.5 712.5 1156.5 727.964 1143.96 740.5 1128.5 740.5 1113.04 740.5 1100.5 727.964 1100.5 712.5Z" stroke="#8497B0" stroke-width="4.58333" stroke-miterlimit="8" fill="#B4C7E7" fill-rule="evenodd"/><path d="M1174.5 712.5C1174.5 697.036 1187.04 684.5 1202.5 684.5 1217.96 684.5 1230.5 697.036 1230.5 712.5 1230.5 727.964 1217.96 740.5 1202.5 740.5 1187.04 740.5 1174.5 727.964 1174.5 712.5Z" stroke="#8497B0" stroke-width="4.58333" stroke-miterlimit="8" fill="#B4C7E7" fill-rule="evenodd"/><path d="M355.5 790.5C355.5 775.036 368.036 762.5 383.5 762.5 398.964 762.5 411.5 775.036 411.5 790.5 411.5 805.964 398.964 818.5 383.5 818.5 368.036 818.5 355.5 805.964 355.5 790.5Z" stroke="#8497B0" stroke-width="4.58333" stroke-miterlimit="8" fill="#B4C7E7" fill-rule="evenodd"/><path d="M431.5 790.5C431.5 775.036 443.812 762.5 459 762.5 474.188 762.5 486.5 775.036 486.5 790.5 486.5 805.964 474.188 818.5 459 818.5 443.812 818.5 431.5 805.964 431.5 790.5Z" stroke="#8497B0" stroke-width="4.58333" stroke-miterlimit="8" fill="#B4C7E7" fill-rule="evenodd"/><path d="M504.5 790.5C504.5 775.036 517.036 762.5 532.5 762.5 547.964 762.5 560.5 775.036 560.5 790.5 560.5 805.964 547.964 818.5 532.5 818.5 517.036 818.5 504.5 805.964 504.5 790.5Z" stroke="#8497B0" stroke-width="4.58333" stroke-miterlimit="8" fill="#B4C7E7" fill-rule="evenodd"/><path d="M578.5 790.5C578.5 775.036 591.036 762.5 606.5 762.5 621.964 762.5 634.5 775.036 634.5 790.5 634.5 805.964 621.964 818.5 606.5 818.5 591.036 818.5 578.5 805.964 578.5 790.5Z" stroke="#8497B0" stroke-width="4.58333" stroke-miterlimit="8" fill="#B4C7E7" fill-rule="evenodd"/><path d="M654.5 790.5C654.5 775.036 666.812 762.5 682 762.5 697.188 762.5 709.5 775.036 709.5 790.5 709.5 805.964 697.188 818.5 682 818.5 666.812 818.5 654.5 805.964 654.5 790.5Z" stroke="#8497B0" stroke-width="4.58333" stroke-miterlimit="8" fill="#B4C7E7" fill-rule="evenodd"/><path d="M729.5 790.5C729.5 775.036 742.036 762.5 757.5 762.5 772.964 762.5 785.5 775.036 785.5 790.5 785.5 805.964 772.964 818.5 757.5 818.5 742.036 818.5 729.5 805.964 729.5 790.5Z" stroke="#8497B0" stroke-width="4.58333" stroke-miterlimit="8" fill="#B4C7E7" fill-rule="evenodd"/><path d="M803.5 790.5C803.5 775.036 815.812 762.5 831 762.5 846.188 762.5 858.5 775.036 858.5 790.5 858.5 805.964 846.188 818.5 831 818.5 815.812 818.5 803.5 805.964 803.5 790.5Z" stroke="#8497B0" stroke-width="4.58333" stroke-miterlimit="8" fill="#B4C7E7" fill-rule="evenodd"/><path d="M877.5 790.5C877.5 775.036 889.812 762.5 905 762.5 920.188 762.5 932.5 775.036 932.5 790.5 932.5 805.964 920.188 818.5 905 818.5 889.812 818.5 877.5 805.964 877.5 790.5Z" stroke="#8497B0" stroke-width="4.58333" stroke-miterlimit="8" fill="#B4C7E7" fill-rule="evenodd"/><path d="M951.5 790.5C951.5 775.036 964.036 762.5 979.5 762.5 994.964 762.5 1007.5 775.036 1007.5 790.5 1007.5 805.964 994.964 818.5 979.5 818.5 964.036 818.5 951.5 805.964 951.5 790.5Z" stroke="#8497B0" stroke-width="4.58333" stroke-miterlimit="8" fill="#B4C7E7" fill-rule="evenodd"/><path d="M1026.5 790.5C1026.5 775.036 1039.04 762.5 1054.5 762.5 1069.96 762.5 1082.5 775.036 1082.5 790.5 1082.5 805.964 1069.96 818.5 1054.5 818.5 1039.04 818.5 1026.5 805.964 1026.5 790.5Z" stroke="#8497B0" stroke-width="4.58333" stroke-miterlimit="8" fill="#B4C7E7" fill-rule="evenodd"/><path d="M1100.5 790.5C1100.5 775.036 1113.04 762.5 1128.5 762.5 1143.96 762.5 1156.5 775.036 1156.5 790.5 1156.5 805.964 1143.96 818.5 1128.5 818.5 1113.04 818.5 1100.5 805.964 1100.5 790.5Z" stroke="#8497B0" stroke-width="4.58333" stroke-miterlimit="8" fill="#B4C7E7" fill-rule="evenodd"/><path d="M1174.5 790.5C1174.5 775.036 1187.04 762.5 1202.5 762.5 1217.96 762.5 1230.5 775.036 1230.5 790.5 1230.5 805.964 1217.96 818.5 1202.5 818.5 1187.04 818.5 1174.5 805.964 1174.5 790.5Z" stroke="#8497B0" stroke-width="4.58333" stroke-miterlimit="8" fill="#B4C7E7" fill-rule="evenodd"/><path d="M355.5 869.5C355.5 854.036 368.036 841.5 383.5 841.5 398.964 841.5 411.5 854.036 411.5 869.5 411.5 884.964 398.964 897.5 383.5 897.5 368.036 897.5 355.5 884.964 355.5 869.5Z" stroke="#8497B0" stroke-width="4.58333" stroke-miterlimit="8" fill="#B4C7E7" fill-rule="evenodd"/><path d="M431.5 869.5C431.5 854.036 443.812 841.5 459 841.5 474.188 841.5 486.5 854.036 486.5 869.5 486.5 884.964 474.188 897.5 459 897.5 443.812 897.5 431.5 884.964 431.5 869.5Z" stroke="#8497B0" stroke-width="4.58333" stroke-miterlimit="8" fill="#B4C7E7" fill-rule="evenodd"/><path d="M504.5 869.5C504.5 854.036 517.036 841.5 532.5 841.5 547.964 841.5 560.5 854.036 560.5 869.5 560.5 884.964 547.964 897.5 532.5 897.5 517.036 897.5 504.5 884.964 504.5 869.5Z" stroke="#8497B0" stroke-width="4.58333" stroke-miterlimit="8" fill="#B4C7E7" fill-rule="evenodd"/><path d="M578.5 869.5C578.5 854.036 591.036 841.5 606.5 841.5 621.964 841.5 634.5 854.036 634.5 869.5 634.5 884.964 621.964 897.5 606.5 897.5 591.036 897.5 578.5 884.964 578.5 869.5Z" stroke="#8497B0" stroke-width="4.58333" stroke-miterlimit="8" fill="#B4C7E7" fill-rule="evenodd"/><path d="M654.5 869.5C654.5 854.036 666.812 841.5 682 841.5 697.188 841.5 709.5 854.036 709.5 869.5 709.5 884.964 697.188 897.5 682 897.5 666.812 897.5 654.5 884.964 654.5 869.5Z" stroke="#8497B0" stroke-width="4.58333" stroke-miterlimit="8" fill="#B4C7E7" fill-rule="evenodd"/><path d="M729.5 869.5C729.5 854.036 742.036 841.5 757.5 841.5 772.964 841.5 785.5 854.036 785.5 869.5 785.5 884.964 772.964 897.5 757.5 897.5 742.036 897.5 729.5 884.964 729.5 869.5Z" stroke="#8497B0" stroke-width="4.58333" stroke-miterlimit="8" fill="#B4C7E7" fill-rule="evenodd"/><path d="M803.5 869.5C803.5 854.036 815.812 841.5 831 841.5 846.188 841.5 858.5 854.036 858.5 869.5 858.5 884.964 846.188 897.5 831 897.5 815.812 897.5 803.5 884.964 803.5 869.5Z" stroke="#8497B0" stroke-width="4.58333" stroke-miterlimit="8" fill="#B4C7E7" fill-rule="evenodd"/><path d="M877.5 869.5C877.5 854.036 889.812 841.5 905 841.5 920.188 841.5 932.5 854.036 932.5 869.5 932.5 884.964 920.188 897.5 905 897.5 889.812 897.5 877.5 884.964 877.5 869.5Z" stroke="#8497B0" stroke-width="4.58333" stroke-miterlimit="8" fill="#B4C7E7" fill-rule="evenodd"/><path d="M951.5 869.5C951.5 854.036 964.036 841.5 979.5 841.5 994.964 841.5 1007.5 854.036 1007.5 869.5 1007.5 884.964 994.964 897.5 979.5 897.5 964.036 897.5 951.5 884.964 951.5 869.5Z" stroke="#8497B0" stroke-width="4.58333" stroke-miterlimit="8" fill="#B4C7E7" fill-rule="evenodd"/><path d="M1026.5 869.5C1026.5 854.036 1039.04 841.5 1054.5 841.5 1069.96 841.5 1082.5 854.036 1082.5 869.5 1082.5 884.964 1069.96 897.5 1054.5 897.5 1039.04 897.5 1026.5 884.964 1026.5 869.5Z" stroke="#8497B0" stroke-width="4.58333" stroke-miterlimit="8" fill="#B4C7E7" fill-rule="evenodd"/><path d="M1100.5 869.5C1100.5 854.036 1113.04 841.5 1128.5 841.5 1143.96 841.5 1156.5 854.036 1156.5 869.5 1156.5 884.964 1143.96 897.5 1128.5 897.5 1113.04 897.5 1100.5 884.964 1100.5 869.5Z" stroke="#8497B0" stroke-width="4.58333" stroke-miterlimit="8" fill="#B4C7E7" fill-rule="evenodd"/><path d="M1174.5 869.5C1174.5 854.036 1187.04 841.5 1202.5 841.5 1217.96 841.5 1230.5 854.036 1230.5 869.5 1230.5 884.964 1217.96 897.5 1202.5 897.5 1187.04 897.5 1174.5 884.964 1174.5 869.5Z" stroke="#8497B0" stroke-width="4.58333" stroke-miterlimit="8" fill="#B4C7E7" fill-rule="evenodd"/><path d="M355.5 948C355.5 932.812 368.036 920.5 383.5 920.5 398.964 920.5 411.5 932.812 411.5 948 411.5 963.188 398.964 975.5 383.5 975.5 368.036 975.5 355.5 963.188 355.5 948Z" stroke="#8497B0" stroke-width="4.58333" stroke-miterlimit="8" fill="#B4C7E7" fill-rule="evenodd"/><path d="M431.5 948C431.5 932.812 443.812 920.5 459 920.5 474.188 920.5 486.5 932.812 486.5 948 486.5 963.188 474.188 975.5 459 975.5 443.812 975.5 431.5 963.188 431.5 948Z" stroke="#8497B0" stroke-width="4.58333" stroke-miterlimit="8" fill="#B4C7E7" fill-rule="evenodd"/><path d="M504.5 948C504.5 932.812 517.036 920.5 532.5 920.5 547.964 920.5 560.5 932.812 560.5 948 560.5 963.188 547.964 975.5 532.5 975.5 517.036 975.5 504.5 963.188 504.5 948Z" stroke="#8497B0" stroke-width="4.58333" stroke-miterlimit="8" fill="#B4C7E7" fill-rule="evenodd"/><path d="M578.5 948C578.5 932.812 591.036 920.5 606.5 920.5 621.964 920.5 634.5 932.812 634.5 948 634.5 963.188 621.964 975.5 606.5 975.5 591.036 975.5 578.5 963.188 578.5 948Z" stroke="#8497B0" stroke-width="4.58333" stroke-miterlimit="8" fill="#B4C7E7" fill-rule="evenodd"/><path d="M654.5 948C654.5 932.812 666.812 920.5 682 920.5 697.188 920.5 709.5 932.812 709.5 948 709.5 963.188 697.188 975.5 682 975.5 666.812 975.5 654.5 963.188 654.5 948Z" stroke="#8497B0" stroke-width="4.58333" stroke-miterlimit="8" fill="#B4C7E7" fill-rule="evenodd"/><path d="M729.5 948C729.5 932.812 742.036 920.5 757.5 920.5 772.964 920.5 785.5 932.812 785.5 948 785.5 963.188 772.964 975.5 757.5 975.5 742.036 975.5 729.5 963.188 729.5 948Z" stroke="#8497B0" stroke-width="4.58333" stroke-miterlimit="8" fill="#B4C7E7" fill-rule="evenodd"/><path d="M803.5 948C803.5 932.812 815.812 920.5 831 920.5 846.188 920.5 858.5 932.812 858.5 948 858.5 963.188 846.188 975.5 831 975.5 815.812 975.5 803.5 963.188 803.5 948Z" stroke="#8497B0" stroke-width="4.58333" stroke-miterlimit="8" fill="#B4C7E7" fill-rule="evenodd"/><path d="M877.5 948C877.5 932.812 889.812 920.5 905 920.5 920.188 920.5 932.5 932.812 932.5 948 932.5 963.188 920.188 975.5 905 975.5 889.812 975.5 877.5 963.188 877.5 948Z" stroke="#8497B0" stroke-width="4.58333" stroke-miterlimit="8" fill="#B4C7E7" fill-rule="evenodd"/><path d="M951.5 948C951.5 932.812 964.036 920.5 979.5 920.5 994.964 920.5 1007.5 932.812 1007.5 948 1007.5 963.188 994.964 975.5 979.5 975.5 964.036 975.5 951.5 963.188 951.5 948Z" stroke="#8497B0" stroke-width="4.58333" stroke-miterlimit="8" fill="#B4C7E7" fill-rule="evenodd"/><path d="M1026.5 948C1026.5 932.812 1039.04 920.5 1054.5 920.5 1069.96 920.5 1082.5 932.812 1082.5 948 1082.5 963.188 1069.96 975.5 1054.5 975.5 1039.04 975.5 1026.5 963.188 1026.5 948Z" stroke="#8497B0" stroke-width="4.58333" stroke-miterlimit="8" fill="#B4C7E7" fill-rule="evenodd"/><path d="M1100.5 948C1100.5 932.812 1113.04 920.5 1128.5 920.5 1143.96 920.5 1156.5 932.812 1156.5 948 1156.5 963.188 1143.96 975.5 1128.5 975.5 1113.04 975.5 1100.5 963.188 1100.5 948Z" stroke="#8497B0" stroke-width="4.58333" stroke-miterlimit="8" fill="#B4C7E7" fill-rule="evenodd"/><path d="M1174.5 948C1174.5 932.812 1187.04 920.5 1202.5 920.5 1217.96 920.5 1230.5 932.812 1230.5 948 1230.5 963.188 1217.96 975.5 1202.5 975.5 1187.04 975.5 1174.5 963.188 1174.5 948Z" stroke="#8497B0" stroke-width="4.58333" stroke-miterlimit="8" fill="#B4C7E7" fill-rule="evenodd"/><path d="M355.5 1026.5C355.5 1011.04 368.036 998.5 383.5 998.5 398.964 998.5 411.5 1011.04 411.5 1026.5 411.5 1041.96 398.964 1054.5 383.5 1054.5 368.036 1054.5 355.5 1041.96 355.5 1026.5Z" stroke="#8497B0" stroke-width="4.58333" stroke-miterlimit="8" fill="#B4C7E7" fill-rule="evenodd"/><path d="M431.5 1026.5C431.5 1011.04 443.812 998.5 459 998.5 474.188 998.5 486.5 1011.04 486.5 1026.5 486.5 1041.96 474.188 1054.5 459 1054.5 443.812 1054.5 431.5 1041.96 431.5 1026.5Z" stroke="#8497B0" stroke-width="4.58333" stroke-miterlimit="8" fill="#B4C7E7" fill-rule="evenodd"/><path d="M504.5 1026.5C504.5 1011.04 517.036 998.5 532.5 998.5 547.964 998.5 560.5 1011.04 560.5 1026.5 560.5 1041.96 547.964 1054.5 532.5 1054.5 517.036 1054.5 504.5 1041.96 504.5 1026.5Z" stroke="#8497B0" stroke-width="4.58333" stroke-miterlimit="8" fill="#B4C7E7" fill-rule="evenodd"/><path d="M578.5 1026.5C578.5 1011.04 591.036 998.5 606.5 998.5 621.964 998.5 634.5 1011.04 634.5 1026.5 634.5 1041.96 621.964 1054.5 606.5 1054.5 591.036 1054.5 578.5 1041.96 578.5 1026.5Z" stroke="#8497B0" stroke-width="4.58333" stroke-miterlimit="8" fill="#B4C7E7" fill-rule="evenodd"/><path d="M654.5 1026.5C654.5 1011.04 666.812 998.5 682 998.5 697.188 998.5 709.5 1011.04 709.5 1026.5 709.5 1041.96 697.188 1054.5 682 1054.5 666.812 1054.5 654.5 1041.96 654.5 1026.5Z" stroke="#8497B0" stroke-width="4.58333" stroke-miterlimit="8" fill="#B4C7E7" fill-rule="evenodd"/><path d="M729.5 1026.5C729.5 1011.04 742.036 998.5 757.5 998.5 772.964 998.5 785.5 1011.04 785.5 1026.5 785.5 1041.96 772.964 1054.5 757.5 1054.5 742.036 1054.5 729.5 1041.96 729.5 1026.5Z" stroke="#8497B0" stroke-width="4.58333" stroke-miterlimit="8" fill="#B4C7E7" fill-rule="evenodd"/><path d="M803.5 1026.5C803.5 1011.04 815.812 998.5 831 998.5 846.188 998.5 858.5 1011.04 858.5 1026.5 858.5 1041.96 846.188 1054.5 831 1054.5 815.812 1054.5 803.5 1041.96 803.5 1026.5Z" stroke="#8497B0" stroke-width="4.58333" stroke-miterlimit="8" fill="#B4C7E7" fill-rule="evenodd"/><path d="M877.5 1026.5C877.5 1011.04 889.812 998.5 905 998.5 920.188 998.5 932.5 1011.04 932.5 1026.5 932.5 1041.96 920.188 1054.5 905 1054.5 889.812 1054.5 877.5 1041.96 877.5 1026.5Z" stroke="#8497B0" stroke-width="4.58333" stroke-miterlimit="8" fill="#B4C7E7" fill-rule="evenodd"/><path d="M951.5 1026.5C951.5 1011.04 964.036 998.5 979.5 998.5 994.964 998.5 1007.5 1011.04 1007.5 1026.5 1007.5 1041.96 994.964 1054.5 979.5 1054.5 964.036 1054.5 951.5 1041.96 951.5 1026.5Z" stroke="#8497B0" stroke-width="4.58333" stroke-miterlimit="8" fill="#B4C7E7" fill-rule="evenodd"/><path d="M1026.5 1026.5C1026.5 1011.04 1039.04 998.5 1054.5 998.5 1069.96 998.5 1082.5 1011.04 1082.5 1026.5 1082.5 1041.96 1069.96 1054.5 1054.5 1054.5 1039.04 1054.5 1026.5 1041.96 1026.5 1026.5Z" stroke="#8497B0" stroke-width="4.58333" stroke-miterlimit="8" fill="#B4C7E7" fill-rule="evenodd"/><path d="M1100.5 1026.5C1100.5 1011.04 1113.04 998.5 1128.5 998.5 1143.96 998.5 1156.5 1011.04 1156.5 1026.5 1156.5 1041.96 1143.96 1054.5 1128.5 1054.5 1113.04 1054.5 1100.5 1041.96 1100.5 1026.5Z" stroke="#8497B0" stroke-width="4.58333" stroke-miterlimit="8" fill="#B4C7E7" fill-rule="evenodd"/><path d="M1174.5 1026.5C1174.5 1011.04 1187.04 998.5 1202.5 998.5 1217.96 998.5 1230.5 1011.04 1230.5 1026.5 1230.5 1041.96 1217.96 1054.5 1202.5 1054.5 1187.04 1054.5 1174.5 1041.96 1174.5 1026.5Z" stroke="#8497B0" stroke-width="4.58333" stroke-miterlimit="8" fill="#B4C7E7" fill-rule="evenodd"/><path d="M355.5 1105C355.5 1089.81 368.036 1077.5 383.5 1077.5 398.964 1077.5 411.5 1089.81 411.5 1105 411.5 1120.19 398.964 1132.5 383.5 1132.5 368.036 1132.5 355.5 1120.19 355.5 1105Z" stroke="#8497B0" stroke-width="4.58333" stroke-miterlimit="8" fill="#B4C7E7" fill-rule="evenodd"/><path d="M431.5 1105C431.5 1089.81 443.812 1077.5 459 1077.5 474.188 1077.5 486.5 1089.81 486.5 1105 486.5 1120.19 474.188 1132.5 459 1132.5 443.812 1132.5 431.5 1120.19 431.5 1105Z" stroke="#8497B0" stroke-width="4.58333" stroke-miterlimit="8" fill="#B4C7E7" fill-rule="evenodd"/><path d="M504.5 1105C504.5 1089.81 517.036 1077.5 532.5 1077.5 547.964 1077.5 560.5 1089.81 560.5 1105 560.5 1120.19 547.964 1132.5 532.5 1132.5 517.036 1132.5 504.5 1120.19 504.5 1105Z" stroke="#8497B0" stroke-width="4.58333" stroke-miterlimit="8" fill="#B4C7E7" fill-rule="evenodd"/><path d="M578.5 1105C578.5 1089.81 591.036 1077.5 606.5 1077.5 621.964 1077.5 634.5 1089.81 634.5 1105 634.5 1120.19 621.964 1132.5 606.5 1132.5 591.036 1132.5 578.5 1120.19 578.5 1105Z" stroke="#8497B0" stroke-width="4.58333" stroke-miterlimit="8" fill="#B4C7E7" fill-rule="evenodd"/><path d="M654.5 1105C654.5 1089.81 666.812 1077.5 682 1077.5 697.188 1077.5 709.5 1089.81 709.5 1105 709.5 1120.19 697.188 1132.5 682 1132.5 666.812 1132.5 654.5 1120.19 654.5 1105Z" stroke="#8497B0" stroke-width="4.58333" stroke-miterlimit="8" fill="#B4C7E7" fill-rule="evenodd"/><path d="M729.5 1105C729.5 1089.81 742.036 1077.5 757.5 1077.5 772.964 1077.5 785.5 1089.81 785.5 1105 785.5 1120.19 772.964 1132.5 757.5 1132.5 742.036 1132.5 729.5 1120.19 729.5 1105Z" stroke="#8497B0" stroke-width="4.58333" stroke-miterlimit="8" fill="#B4C7E7" fill-rule="evenodd"/><path d="M803.5 1105C803.5 1089.81 815.812 1077.5 831 1077.5 846.188 1077.5 858.5 1089.81 858.5 1105 858.5 1120.19 846.188 1132.5 831 1132.5 815.812 1132.5 803.5 1120.19 803.5 1105Z" stroke="#8497B0" stroke-width="4.58333" stroke-miterlimit="8" fill="#B4C7E7" fill-rule="evenodd"/><path d="M877.5 1105C877.5 1089.81 889.812 1077.5 905 1077.5 920.188 1077.5 932.5 1089.81 932.5 1105 932.5 1120.19 920.188 1132.5 905 1132.5 889.812 1132.5 877.5 1120.19 877.5 1105Z" stroke="#8497B0" stroke-width="4.58333" stroke-miterlimit="8" fill="#B4C7E7" fill-rule="evenodd"/><path d="M951.5 1105C951.5 1089.81 964.036 1077.5 979.5 1077.5 994.964 1077.5 1007.5 1089.81 1007.5 1105 1007.5 1120.19 994.964 1132.5 979.5 1132.5 964.036 1132.5 951.5 1120.19 951.5 1105Z" stroke="#8497B0" stroke-width="4.58333" stroke-miterlimit="8" fill="#B4C7E7" fill-rule="evenodd"/><path d="M1026.5 1105C1026.5 1089.81 1039.04 1077.5 1054.5 1077.5 1069.96 1077.5 1082.5 1089.81 1082.5 1105 1082.5 1120.19 1069.96 1132.5 1054.5 1132.5 1039.04 1132.5 1026.5 1120.19 1026.5 1105Z" stroke="#8497B0" stroke-width="4.58333" stroke-miterlimit="8" fill="#B4C7E7" fill-rule="evenodd"/><path d="M1100.5 1105C1100.5 1089.81 1113.04 1077.5 1128.5 1077.5 1143.96 1077.5 1156.5 1089.81 1156.5 1105 1156.5 1120.19 1143.96 1132.5 1128.5 1132.5 1113.04 1132.5 1100.5 1120.19 1100.5 1105Z" stroke="#8497B0" stroke-width="4.58333" stroke-miterlimit="8" fill="#B4C7E7" fill-rule="evenodd"/><path d="M1174.5 1105C1174.5 1089.81 1187.04 1077.5 1202.5 1077.5 1217.96 1077.5 1230.5 1089.81 1230.5 1105 1230.5 1120.19 1217.96 1132.5 1202.5 1132.5 1187.04 1132.5 1174.5 1120.19 1174.5 1105Z" stroke="#8497B0" stroke-width="4.58333" stroke-miterlimit="8" fill="#B4C7E7" fill-rule="evenodd"/><path d="M355.5 1183C355.5 1167.81 368.036 1155.5 383.5 1155.5 398.964 1155.5 411.5 1167.81 411.5 1183 411.5 1198.19 398.964 1210.5 383.5 1210.5 368.036 1210.5 355.5 1198.19 355.5 1183Z" stroke="#8497B0" stroke-width="4.58333" stroke-miterlimit="8" fill="#B4C7E7" fill-rule="evenodd"/><path d="M431.5 1183C431.5 1167.81 443.812 1155.5 459 1155.5 474.188 1155.5 486.5 1167.81 486.5 1183 486.5 1198.19 474.188 1210.5 459 1210.5 443.812 1210.5 431.5 1198.19 431.5 1183Z" stroke="#8497B0" stroke-width="4.58333" stroke-miterlimit="8" fill="#B4C7E7" fill-rule="evenodd"/><path d="M504.5 1183C504.5 1167.81 517.036 1155.5 532.5 1155.5 547.964 1155.5 560.5 1167.81 560.5 1183 560.5 1198.19 547.964 1210.5 532.5 1210.5 517.036 1210.5 504.5 1198.19 504.5 1183Z" stroke="#8497B0" stroke-width="4.58333" stroke-miterlimit="8" fill="#B4C7E7" fill-rule="evenodd"/><path d="M578.5 1183C578.5 1167.81 591.036 1155.5 606.5 1155.5 621.964 1155.5 634.5 1167.81 634.5 1183 634.5 1198.19 621.964 1210.5 606.5 1210.5 591.036 1210.5 578.5 1198.19 578.5 1183Z" stroke="#8497B0" stroke-width="4.58333" stroke-miterlimit="8" fill="#B4C7E7" fill-rule="evenodd"/><path d="M654.5 1183C654.5 1167.81 666.812 1155.5 682 1155.5 697.188 1155.5 709.5 1167.81 709.5 1183 709.5 1198.19 697.188 1210.5 682 1210.5 666.812 1210.5 654.5 1198.19 654.5 1183Z" stroke="#8497B0" stroke-width="4.58333" stroke-miterlimit="8" fill="#B4C7E7" fill-rule="evenodd"/><path d="M729.5 1183C729.5 1167.81 742.036 1155.5 757.5 1155.5 772.964 1155.5 785.5 1167.81 785.5 1183 785.5 1198.19 772.964 1210.5 757.5 1210.5 742.036 1210.5 729.5 1198.19 729.5 1183Z" stroke="#8497B0" stroke-width="4.58333" stroke-miterlimit="8" fill="#B4C7E7" fill-rule="evenodd"/><path d="M803.5 1183C803.5 1167.81 815.812 1155.5 831 1155.5 846.188 1155.5 858.5 1167.81 858.5 1183 858.5 1198.19 846.188 1210.5 831 1210.5 815.812 1210.5 803.5 1198.19 803.5 1183Z" stroke="#8497B0" stroke-width="4.58333" stroke-miterlimit="8" fill="#B4C7E7" fill-rule="evenodd"/><path d="M877.5 1183C877.5 1167.81 889.812 1155.5 905 1155.5 920.188 1155.5 932.5 1167.81 932.5 1183 932.5 1198.19 920.188 1210.5 905 1210.5 889.812 1210.5 877.5 1198.19 877.5 1183Z" stroke="#8497B0" stroke-width="4.58333" stroke-miterlimit="8" fill="#B4C7E7" fill-rule="evenodd"/><path d="M951.5 1183C951.5 1167.81 964.036 1155.5 979.5 1155.5 994.964 1155.5 1007.5 1167.81 1007.5 1183 1007.5 1198.19 994.964 1210.5 979.5 1210.5 964.036 1210.5 951.5 1198.19 951.5 1183Z" stroke="#8497B0" stroke-width="4.58333" stroke-miterlimit="8" fill="#B4C7E7" fill-rule="evenodd"/><path d="M1026.5 1183C1026.5 1167.81 1039.04 1155.5 1054.5 1155.5 1069.96 1155.5 1082.5 1167.81 1082.5 1183 1082.5 1198.19 1069.96 1210.5 1054.5 1210.5 1039.04 1210.5 1026.5 1198.19 1026.5 1183Z" stroke="#8497B0" stroke-width="4.58333" stroke-miterlimit="8" fill="#B4C7E7" fill-rule="evenodd"/><path d="M1100.5 1183C1100.5 1167.81 1113.04 1155.5 1128.5 1155.5 1143.96 1155.5 1156.5 1167.81 1156.5 1183 1156.5 1198.19 1143.96 1210.5 1128.5 1210.5 1113.04 1210.5 1100.5 1198.19 1100.5 1183Z" stroke="#8497B0" stroke-width="4.58333" stroke-miterlimit="8" fill="#B4C7E7" fill-rule="evenodd"/><path d="M1174.5 1183C1174.5 1167.81 1187.04 1155.5 1202.5 1155.5 1217.96 1155.5 1230.5 1167.81 1230.5 1183 1230.5 1198.19 1217.96 1210.5 1202.5 1210.5 1187.04 1210.5 1174.5 1198.19 1174.5 1183Z" stroke="#8497B0" stroke-width="4.58333" stroke-miterlimit="8" fill="#B4C7E7" fill-rule="evenodd"/><text fill="#3B3838" font-family="Arial,Arial_MSFontService,sans-serif" font-weight="700" font-size="37" transform="matrix(1 0 0 1 372.218 603)">1</text><text fill="#3B3838" font-family="Arial,Arial_MSFontService,sans-serif" font-weight="700" font-size="37" transform="matrix(1 0 0 1 313.066 727)">B</text><text fill="#3B3838" font-family="Arial,Arial_MSFontService,sans-serif" font-weight="700" font-size="37" transform="matrix(1 0 0 1 313.679 805)">C</text><text fill="#3B3838" font-family="Arial,Arial_MSFontService,sans-serif" font-weight="700" font-size="37" transform="matrix(1 0 0 1 314.966 884)">D</text><text fill="#3B3838" font-family="Arial,Arial_MSFontService,sans-serif" font-weight="700" font-size="37" transform="matrix(1 0 0 1 314.966 962)">E</text><text fill="#3B3838" font-family="Arial,Arial_MSFontService,sans-serif" font-weight="700" font-size="37" transform="matrix(1 0 0 1 314.966 1041)">F</text><text fill="#3B3838" font-family="Arial,Arial_MSFontService,sans-serif" font-weight="700" font-size="37" transform="matrix(1 0 0 1 314.966 1118)">G</text><text fill="#3B3838" font-family="Arial,Arial_MSFontService,sans-serif" font-weight="700" font-size="37" transform="matrix(1 0 0 1 316.433 1198)">H</text><text fill="#3B3838" font-family="Arial,Arial_MSFontService,sans-serif" font-weight="700" font-size="37" transform="matrix(1 0 0 1 447.53 603)">2</text><text fill="#3B3838" font-family="Arial,Arial_MSFontService,sans-serif" font-weight="700" font-size="37" transform="matrix(1 0 0 1 520.88 603)">3</text><text fill="#3B3838" font-family="Arial,Arial_MSFontService,sans-serif" font-weight="700" font-size="37" transform="matrix(1 0 0 1 594.836 603)">4</text><text fill="#3B3838" font-family="Arial,Arial_MSFontService,sans-serif" font-weight="700" font-size="37" transform="matrix(1 0 0 1 670.107 603)">5</text><text fill="#3B3838" font-family="Arial,Arial_MSFontService,sans-serif" font-weight="700" font-size="37" transform="matrix(1 0 0 1 744.969 603)">6</text><text fill="#3B3838" font-family="Arial,Arial_MSFontService,sans-serif" font-weight="700" font-size="37" transform="matrix(1 0 0 1 818.789 603)">7</text><text fill="#3B3838" font-family="Arial,Arial_MSFontService,sans-serif" font-weight="700" font-size="37" transform="matrix(1 0 0 1 893.376 603)">8</text><text fill="#3B3838" font-family="Arial,Arial_MSFontService,sans-serif" font-weight="700" font-size="37" transform="matrix(1 0 0 1 968.235 603)">9</text><text fill="#3B3838" font-family="Arial,Arial_MSFontService,sans-serif" font-weight="700" font-size="37" transform="matrix(1 0 0 1 1033.08 603)">10</text><text fill="#3B3838" font-family="Arial,Arial_MSFontService,sans-serif" font-weight="700" font-size="37" transform="matrix(1 0 0 1 1106.68 603)">11</text><text fill="#3B3838" font-family="Arial,Arial_MSFontService,sans-serif" font-weight="700" font-size="37" transform="matrix(1 0 0 1 1180.04 603)">12</text><text fill="#3B3838" font-family="Arial,Arial_MSFontService,sans-serif" font-weight="700" font-size="37" transform="matrix(1 0 0 1 313.502 652)">A</text></g></svg>