<svg width="1089" height="548" xmlns="http://www.w3.org/2000/svg" xmlns:xlink="http://www.w3.org/1999/xlink" xml:space="preserve" overflow="hidden"><g transform="translate(-466 -2942)"><path d="M496.506 3348.5C481.033 3348.5 468.5 3286.93 468.5 3211 468.5 3135.07 481.033 3073.5 496.506 3073.5L608.495 3073.5C623.968 3073.5 636.5 3135.07 636.5 3211 636.5 3286.93 623.968 3348.5 608.495 3348.5L496.506 3348.5Z" fill="#E7E6E6" fill-rule="evenodd"/><path d="M496.506 3073.5C511.979 3073.5 500.353 3071.85 494.12 3208.94 499.647 3348.77 511.979 3348.5 496.506 3348.5" stroke="#000000" stroke-width="4.58333" stroke-miterlimit="8" fill="none" fill-rule="evenodd"/><path d="M496.506 3348.5C481.033 3348.5 468.5 3286.93 468.5 3211 468.5 3135.07 481.033 3073.5 496.506 3073.5L608.495 3073.5C623.968 3073.5 636.5 3135.07 636.5 3211 636.5 3286.93 623.968 3348.5 608.495 3348.5L496.506 3348.5Z" stroke="#000000" stroke-width="4.58333" stroke-miterlimit="8" fill="none" fill-rule="evenodd"/><path d="M515.5 3118C515.5 3105.02 525.797 3094.5 538.5 3094.5 551.202 3094.5 561.5 3105.02 561.5 3118 561.5 3130.98 551.202 3141.5 538.5 3141.5 525.797 3141.5 515.5 3130.98 515.5 3118Z" stroke="#3B3838" stroke-width="4.58333" stroke-miterlimit="8" fill="#7C7C7C" fill-rule="evenodd"/><rect x="510.5" y="3203.5" width="99" height="43" stroke="#000000" stroke-width="4.58333" stroke-miterlimit="8" fill="#3B3838"/><path d="M0 0 29.9999 0 23.9999 159 5.99998 159Z" fill="#E7E6E6" fill-rule="evenodd" transform="matrix(-6.12323e-17 -1 -1 6.12323e-17 680 3240)"/><rect x="587.5" y="2944.5" width="965" height="543" stroke="#000000" stroke-width="4.58333" stroke-miterlimit="8" fill="#E7E6E6"/><path d="M0 0 571.315 0.000360892" stroke="#FFFFFF" stroke-width="13.75" stroke-miterlimit="8" fill="none" fill-rule="evenodd" transform="matrix(-1 0 0 1 1547.31 3109)"/><rect x="626.5" y="2983.5" width="394" height="464" stroke="#000000" stroke-width="4.58333" stroke-miterlimit="8" fill="#3B3838"/><rect x="535.5" y="3038.5" width="16.9998" height="34" stroke="#000000" stroke-width="4.58333" stroke-miterlimit="8" fill="#3B3838"/><rect x="628" y="3085" width="191" height="45.9998" fill="#0070C0"/></g></svg>